sfk_cyclingleg_states
version=1
nRows=12
nColumns=53
inDegrees=yes

# SIMM Motion File Header:
name sfk_cyclingleg_states
datacolumns 53
datarows 12
otherdata 1
range 0.43603477 0.44150892
endheader
time	/jointset/bb/crank_angle/value	/jointset/bb/crank_angle/speed	/jointset/spindle/pedal_angle_r/value	/jointset/spindle/pedal_angle_r/speed	/jointset/ground_pelvis/pelvis_tilt/value	/jointset/ground_pelvis/pelvis_tilt/speed	/jointset/ground_pelvis/pelvis_list/value	/jointset/ground_pelvis/pelvis_list/speed	/jointset/ground_pelvis/pelvis_rotation/value	/jointset/ground_pelvis/pelvis_rotation/speed	/jointset/ground_pelvis/pelvis_tx/value	/jointset/ground_pelvis/pelvis_tx/speed	/jointset/ground_pelvis/pelvis_ty/value	/jointset/ground_pelvis/pelvis_ty/speed	/jointset/ground_pelvis/pelvis_tz/value	/jointset/ground_pelvis/pelvis_tz/speed	/jointset/hip_r/hip_angle_r/value	/jointset/hip_r/hip_angle_r/speed	/jointset/hip_r/hip_adduction_r/value	/jointset/hip_r/hip_adduction_r/speed	/jointset/hip_r/hip_rotation_r/value	/jointset/hip_r/hip_rotation_r/speed	/jointset/knee_r/knee_angle_r/value	/jointset/knee_r/knee_angle_r/speed	/jointset/knee_r/tib_tx_r/value	/jointset/knee_r/tib_tx_r/speed	/jointset/knee_r/tib_ty_r/value	/jointset/knee_r/tib_ty_r/speed	/jointset/tib_pat_r/pat_angle_r/value	/jointset/tib_pat_r/pat_angle_r/speed	/jointset/tib_pat_r/pat_tx_r/value	/jointset/tib_pat_r/pat_tx_r/speed	/jointset/tib_pat_r/pat_ty_r/value	/jointset/tib_pat_r/pat_ty_r/speed	/jointset/ankle_r/ankle_angle_r/value	/jointset/ankle_r/ankle_angle_r/speed	/jointset/subtalar_r/subtalar_angle_r/value	/jointset/subtalar_r/subtalar_angle_r/speed	/jointset/mtp_r/mtp_angle_r/value	/jointset/mtp_r/mtp_angle_r/speed	/forceset/bifemlh_r/activation	/forceset/bifemlh_r/fiber_length	/forceset/bifemsh_r/activation	/forceset/bifemsh_r/fiber_length	/forceset/glut_max2_r/activation	/forceset/glut_max2_r/fiber_length	/forceset/vas_int_r/activation	/forceset/vas_int_r/fiber_length	/forceset/med_gas_r/activation	/forceset/med_gas_r/fiber_length	/forceset/tib_ant_r/activation	/forceset/tib_ant_r/fiber_length
      0.43603477	   -219.49201619	   -480.13863232	    212.17935424	    276.24852776	      0.00000000	      0.00000000	      0.00000000	      0.00000000	      0.00000000	      0.00000000	      0.00000000	      0.00000000	     -0.00000000	     -0.00000000	     -0.00000000	     -0.00000000	     40.53926243	     98.71710564	      4.37784069	     -0.52212044	      0.03271881	    -22.97431520	    -69.07442521	   -298.32515150	      0.00514728	      0.00199654	     -0.47883451	     -0.09724809	     17.51430619	      2.01351336	      0.04003530	     -0.09453617	     -0.02261972	      0.00825101	     21.66306482	     -3.47126677	      0.00000000	      0.00000000	      0.00000000	      0.00000000	     -0.03069738	      0.11260417	     -0.03069738	      0.16144419	     -0.03069738	      0.13055490	     -0.03069738	      0.13547865	      0.05000000	      0.10000000	      0.05000000	      0.10000000
      0.43656971	   -219.74886293	   -480.13863232	    212.32726030	    276.73069518	      0.00000000	      0.00000000	      0.00000000	      0.00000000	      0.00000000	      0.00000000	      0.00000000	      0.00000000	     -0.00000000	     -0.00000000	     -0.00000000	     -0.00000000	     40.59213407	     98.95495712	      4.37755864	     -0.53238741	      0.02043213	    -22.96213449	    -69.23401812	   -298.34707465	      0.00514827	      0.00168014	     -0.47888655	     -0.09734299	     17.51536984	      1.96330707	      0.03998469	     -0.09466403	     -0.02261533	      0.00816027	     21.66128038	     -3.20033715	      0.00000000	      0.00000000	      0.00000000	      0.00000000	     -0.03076626	      0.11257852	     -0.03076626	      0.16136051	     -0.03076626	      0.13059462	     -0.03076626	      0.13563054	      0.05000000	      0.10000000	      0.05000000	      0.10000000
      0.43710465	   -220.00570968	   -480.13863232	    212.47542487	    277.21505217	      0.00000000	      0.00000000	      0.00000000	      0.00000000	      0.00000000	      0.00000000	      0.00000000	      0.00000000	     -0.00000000	     -0.00000000	     -0.00000000	     -0.00000000	     40.64513287	     99.19246580	      4.37727110	     -0.54265021	      0.00815194	    -22.95002105	    -69.39362197	   -298.36605401	      0.00514908	      0.00136368	     -0.47893865	     -0.09743632	     17.51640683	      1.91381776	      0.03993402	     -0.09479143	     -0.02261099	      0.00806791	     21.65964075	     -2.92982756	      0.00000000	      0.00000000	      0.00000000	      0.00000000	     -0.03083513	      0.11255317	     -0.03083513	      0.16127694	     -0.03083513	      0.13063443	     -0.03083513	      0.13568727	      0.05000000	      0.10000000	      0.05000000	      0.10000000
      0.43754876	   -220.21894026	   -480.13863232	    212.59862626	    277.61882011	      0.00000000	      0.00000000	      0.00000000	      0.00000000	      0.00000000	      0.00000000	      0.00000000	      0.00000000	     -0.00000000	     -0.00000000	     -0.00000000	     -0.00000000	     40.68922818	     99.38938842	      4.37702821	     -0.55116679	     -0.00203799	    -22.94001587	    -69.52613005	   -298.37958325	      0.00514963	      0.00110092	     -0.47898194	     -0.09751260	     17.51724774	      1.87327879	      0.03989190	     -0.09489686	     -0.02260743	      0.00799000	     21.65838942	     -2.70557267	      0.00000000	      0.00000000	      0.00000000	      0.00000000	     -0.03089231	      0.11253235	     -0.03089231	      0.16120766	     -0.03089231	      0.13066754	     -0.03089231	      0.13585737	      0.05000000	      0.10000000	      0.05000000	      0.10000000
      0.43799286	   -220.43217084	   -480.13863232	    212.72200730	    278.02409389	      0.00000000	      0.00000000	      0.00000000	      0.00000000	      0.00000000	      0.00000000	      0.00000000	      0.00000000	     -0.00000000	     -0.00000000	     -0.00000000	     -0.00000000	     40.73341091	     99.58608643	      4.37678155	     -0.55967997	     -0.01222349	    -22.93005729	    -69.65864368	   -298.39109969	      0.00515006	      0.00083814	     -0.47902526	     -0.09758779	     17.51807076	      1.83323686	      0.03984973	     -0.09500198	     -0.02260390	      0.00791099	     21.65723761	     -2.48160604	      0.00000000	      0.00000000	      0.00000000	      0.00000000	     -0.03094949	      0.11251174	     -0.03094949	      0.16113846	     -0.03094949	      0.13070072	     -0.03094949	      0.13588151	      0.05000000	      0.10000000	      0.05000000	      0.10000000
      0.43849515	   -220.67334208	   -480.13863232	    212.86177291	    278.48428579	      0.00000000	      0.00000000	      0.00000000	      0.00000000	      0.00000000	      0.00000000	      0.00000000	      0.00000000	     -0.00000000	     -0.00000000	     -0.00000000	     -0.00000000	     40.78348832	     99.80829456	      4.37649801	     -0.56930432	     -0.02373832	    -22.91885003	    -69.80852682	   -298.40170837	      0.00515040	      0.00054090	     -0.47907430	     -0.09767153	     17.51898033	      1.78854861	      0.03980198	     -0.09512049	     -0.02259995	      0.00782028	     21.65605466	     -2.22863861	      0.00000000	      0.00000000	      0.00000000	      0.00000000	     -0.03101416	      0.11248867	     -0.03101416	      0.16106030	     -0.03101416	      0.13073830	     -0.03101416	      0.13598211	      0.05000000	      0.10000000	      0.05000000	      0.10000000
      0.43899745	   -220.91451332	   -480.13863232	    213.00177016	    278.94640047	      0.00000000	      0.00000000	      0.00000000	      0.00000000	      0.00000000	      0.00000000	      0.00000000	      0.00000000	     -0.00000000	     -0.00000000	     -0.00000000	     -0.00000000	     40.83367728	    100.03022932	      4.37620963	     -0.57892372	     -0.03524755	    -22.90770258	    -69.95841464	   -298.40976128	      0.00515060	      0.00024365	     -0.47912338	     -0.09775388	     17.51986762	      1.74449952	      0.03975417	     -0.09523860	     -0.02259604	      0.00772815	     21.65499868	     -1.97603835	      0.00000000	      0.00000000	      0.00000000	      0.00000000	     -0.03107883	      0.11246587	     -0.03107883	      0.16098224	     -0.03107883	      0.13077596	     -0.03107883	      0.13608017	      0.05000000	      0.10000000	      0.05000000	      0.10000000
      0.43949974	   -221.15568457	   -480.13863232	    213.14200001	    279.41043560	      0.00000000	      0.00000000	      0.00000000	      0.00000000	      0.00000000	      0.00000000	      0.00000000	      0.00000000	     -0.00000000	     -0.00000000	     -0.00000000	     -0.00000000	     40.88397765	    100.25189831	      4.37591643	     -0.58853787	     -0.04675118	    -22.89661507	    -70.10830586	   -298.41526904	      0.00515065	     -0.00005361	     -0.47917250	     -0.09783485	     17.52073295	      1.70109127	      0.03970631	     -0.09535631	     -0.02259218	      0.00763462	     21.65406949	     -1.72380454	      0.00000000	      0.00000000	      0.00000000	      0.00000000	     -0.03114350	      0.11244334	     -0.03114350	      0.16090430	     -0.03114350	      0.13081370	     -0.03114350	      0.13618141	      0.05000000	      0.10000000	      0.05000000	      0.10000000
      0.44000204	   -221.39685581	   -480.13863232	    213.28246342	    279.87638801	      0.00000000	      0.00000000	      0.00000000	      0.00000000	      0.00000000	      0.00000000	      0.00000000	      0.00000000	     -0.00000000	     -0.00000000	     -0.00000000	     -0.00000000	     40.93438929	    100.47330952	      4.37561839	     -0.59814651	     -0.05824927	    -22.88558773	    -70.25819922	   -298.41824335	      0.00515055	     -0.00035086	     -0.47922167	     -0.09791444	     17.52157663	      1.65832548	      0.03965838	     -0.09547363	     -0.02258837	      0.00753966	     21.65326690	     -1.47193666	      0.00000000	      0.00000000	      0.00000000	      0.00000000	     -0.03120817	      0.11242108	     -0.03120817	      0.16082648	     -0.03120817	      0.13085151	     -0.03120817	      0.13627771	      0.05000000	      0.10000000	      0.05000000	      0.10000000
      0.44050433	   -221.63802705	   -480.13863232	    213.42316136	    280.34425612	      0.00000000	      0.00000000	      0.00000000	      0.00000000	      0.00000000	      0.00000000	      0.00000000	      0.00000000	     -0.00000000	     -0.00000000	     -0.00000000	     -0.00000000	     40.98491209	    100.69447002	      4.37531553	     -0.60774933	     -0.06974183	    -22.87462061	    -70.40809343	   -298.41869369	      0.00515030	     -0.00064810	     -0.47927087	     -0.09799266	     17.52239899	      1.61620370	      0.03961040	     -0.09559054	     -0.02258461	      0.00744331	     21.65259074	     -1.22043384	      0.00000000	      0.00000000	      0.00000000	      0.00000000	     -0.03127284	      0.11239909	     -0.03127284	      0.16074876	     -0.03127284	      0.13088939	     -0.03127284	      0.13638062	      0.05000000	      0.10000000	      0.05000000	      0.10000000
      0.44100663	   -221.87919830	   -480.13863232	    213.56409479	    280.81403856	      0.00000000	      0.00000000	      0.00000000	      0.00000000	      0.00000000	      0.00000000	      0.00000000	      0.00000000	     -0.00000000	     -0.00000000	     -0.00000000	     -0.00000000	     41.03554592	    100.91538670	      4.37500785	     -0.61734601	     -0.08122889	    -22.86371371	    -70.55798724	   -298.41662922	      0.00514990	     -0.00094530	     -0.47932011	     -0.09806951	     17.52320036	      1.57472739	      0.03956235	     -0.09570704	     -0.02258089	      0.00734555	     21.65204081	     -0.96929519	      0.00000000	      0.00000000	      0.00000000	      0.00000000	     -0.03133751	      0.11237736	     -0.03133751	      0.16067116	     -0.03133751	      0.13092734	     -0.03133751	      0.13647357	      0.05000000	      0.10000000	      0.05000000	      0.10000000
      0.44150892	   -222.12036954	   -480.13863232	    213.70526466	    281.28573408	      0.00000000	      0.00000000	      0.00000000	      0.00000000	      0.00000000	      0.00000000	      0.00000000	      0.00000000	     -0.00000000	     -0.00000000	     -0.00000000	     -0.00000000	     41.08629064	    101.13606635	      4.37469536	     -0.62693622	     -0.09271050	    -22.85286704	    -70.70787939	   -298.41205887	      0.00514935	     -0.00124247	     -0.47936939	     -0.09814499	     17.52398105	      1.53389798	      0.03951425	     -0.09582315	     -0.02257723	      0.00724638	     21.65161693	     -0.71851979	      0.00000000	      0.00000000	      0.00000000	      0.00000000	     -0.03140218	      0.11235591	     -0.03140218	      0.16059368	     -0.03140218	      0.13096537	     -0.03140218	      0.13657966	      0.05000000	      0.10000000	      0.05000000	      0.10000000
